HIERARCHY
ROOT ui
{
	 OFFSET 0 0 0
	 CHANNELS 3 XPosition YPosition Z Position
	 EndSite
	 {
	 OFFSET 0 -1 0
	 }
}
ROOT li
{
	 OFFSET 0 0 0
	 CHANNELS 3 XPosition YPosition Z Position
	 EndSite
	 {
	 OFFSET 0 -1 0
	 }
}
ROOT ul
{
	 OFFSET 0 0 0
	 CHANNELS 3 XPosition YPosition Z Position
	 EndSite
	 {
	 OFFSET 0 -1 0
	 }
}
ROOT ll
{
	 OFFSET 0 0 0
	 CHANNELS 3 XPosition YPosition Z Position
	 EndSite
	 {
	 OFFSET 0 -1 0
	 }
}
ROOT tt
{
	 OFFSET 0 0 0
	 CHANNELS 3 XPosition YPosition Z Position
	 EndSite
	 {
	 OFFSET 0 -1 0
	 }
}
ROOT tb
{
	 OFFSET 0 0 0
	 CHANNELS 3 XPosition YPosition Z Position
	 EndSite
	 {
	 OFFSET 0 -1 0
	 }
}
ROOT td
{
	 OFFSET 0 0 0
	 CHANNELS 3 XPosition YPosition Z Position
	 EndSite
	 {
	 OFFSET 0 -1 0
	 }
}
ROOT v
{
	 OFFSET 0 0 0
	 CHANNELS 3 XPosition YPosition Z Position
	 EndSite
	 {
	 OFFSET 0 -1 0
	 }
}
ROOT bn
{
	 OFFSET 0 0 0
	 CHANNELS 3 XPosition YPosition Z Position
	 EndSite
	 {
	 OFFSET 0 -1 0
	 }
}
MOTION
Frames: 27
Frame Time: 0.002
8.520100265741349E-5	-0.0011373330354690551	0		0.44135284423828125	-2.27835302734375	0		-1.1306651611328125	0.02363566589355469	0		-0.878478271484375	-2.193601318359375	0		1.7935670166015625	-0.3663673095703125	0		3.26520849609375	0.23557991027832031	0		4.63269580078125	0.3831078186035156	0		5.5789189453125	0.21945083618164063	0		-0.4973325805664062	5.83039990234375	0		
-0.024895580291748046	0.006758222103118897	0		0.45608895874023436	-2.283103515625	0		-1.1088240966796874	0.019836374282836914	0		-0.8267906494140626	-2.201882568359375	0		1.807456787109375	-0.3661554870605469	0		3.306708740234375	0.20929627990722657	0		4.6328056640625	0.39542767333984374	0		5.58736279296875	0.21270429992675782	0		-0.46691876220703127	5.84844677734375	0		
0.012985005378723144	0.006656124114990235	0		0.4629793090820313	-2.2767353515625	0		-1.1157320556640624	0.033485397338867184	0		-0.8918408203125	-2.191328125	0		1.8064857177734375	-0.3557139892578125	0		3.2870625	0.238977294921875	0		4.64368896484375	0.3945713806152344	0		5.5909453125	0.228628173828125	0		-0.47996307373046876	5.8391689453125	0		
-0.012214554786682128	0.00455031681060791	0		0.4497544250488281	-2.275048828125	0		-1.12101220703125	0.026106679916381836	0		-0.8361660766601563	-2.196681396484375	0		1.8021746826171876	-0.364219970703125	0		3.27748974609375	0.21249623107910157	0		4.63345458984375	0.3890517272949219	0		5.5828974609375	0.21559175109863282	0		-0.4920524597167969	5.829876953125	0		
-0.01942776107788086	0.005167407035827637	0		0.45143905639648435	-2.275591796875	0		-1.11924169921875	0.025622491836547853	0		-0.869426513671875	-2.19362109375	0		1.80086767578125	-0.3687652282714844	0		3.292471923828125	0.2246398162841797	0		4.63523876953125	0.38835260009765626	0		5.59057568359375	0.21408120727539062	0		-0.48908108520507815	5.828353515625	0		
-0.01281309700012207	-4.255940020084381E-4	0		0.4510193786621094	-2.2780908203125	0		-1.117546142578125	0.02514838409423828	0		-0.8369268798828124	-2.201596435546875	0		1.7966610107421874	-0.3622509765625	0		3.291872802734375	0.2050394744873047	0		4.64181982421875	0.3795906982421875	0		5.58119775390625	0.23055633544921875	0		-0.4740170593261719	5.8376484375	0		
-0.011206242561340332	-9.252480268478393E-4	0		0.46443283081054687	-2.28579736328125	0		-1.112890869140625	0.027639471054077148	0		-0.891358642578125	-2.1991748046875	0		1.81309375	-0.3730522766113281	0		3.281934814453125	0.23261105346679686	0		4.64343994140625	0.37892694091796875	0		5.5865068359375	0.21189451599121092	0		-0.47220440673828123	5.8371650390625	0		
-0.007505076885223389	0.010559258460998535	0		0.46008920288085936	-2.272201416015625	0		-1.1073167724609374	0.03113054847717285	0		-0.8278677368164062	-2.19661767578125	0		1.817654296875	-0.36964480590820314	0		3.284100830078125	0.21000376892089845	0		4.64905810546875	0.38422183227539064	0		5.58758154296875	0.2107376251220703	0		-0.483654052734375	5.82690771484375	0		
-0.008290487289428711	-0.0018692259788513183	0		0.45734127807617186	-2.2776142578125	0		-1.1130208740234375	0.023817502975463867	0		-0.8197266235351562	-2.209163330078125	0		1.8070338134765624	-0.3709744567871094	0		3.321829345703125	0.22885504150390626	0		4.64638134765625	0.3776719970703125	0		5.5908359375	0.22684213256835936	0		-0.4698824462890625	5.837267578125	0		
-0.006992507934570313	-0.002309501886367798	0		0.48451617431640626	-2.281485595703125	0		-1.1117220458984376	0.023411996841430666	0		-0.8334320678710937	-2.205338134765625	0		1.8083201904296875	-0.37147186279296873	0		3.277060302734375	0.22404837036132813	0		4.64281982421875	0.38516436767578127	0		5.589505859375	0.20856709289550782	0		-0.48155941772460936	5.8270517578125	0		
-0.010723898887634278	0.002352876901626587	0		0.45765481567382815	-2.280468017578125	0		-1.11053369140625	0.023027956008911134	0		-0.832310791015625	-2.20573046875	0		1.8094967041015626	-0.37194384765625	0		3.288156982421875	0.21737222290039063	0		4.64401953125	0.38460699462890624	0		5.59035107421875	0.20755926513671874	0		-0.4801961975097656	5.8266484375	0		
-0.004727892875671387	-0.0031198389530181884	0		0.4705522155761719	-2.288066650390625	0		-1.1094559326171876	0.022666637420654296	0		-0.8533424682617188	-2.2087451171875	0		1.7805509033203124	-0.3729059143066406	0		3.302158203125	0.21167605590820313	0		4.63818896484375	0.38919256591796875	0		5.59821435546875	0.20113925170898436	0		-0.44966592407226563	5.8437998046875	0		
0.00639992094039917	0.0063502869606018066	0		0.4765701904296875	-2.2815283203125	0		-1.0904090576171874	0.0270384521484375	0		-0.8134235229492187	-2.208718505859375	0		1.8235355224609375	-0.371999267578125	0		3.292520263671875	0.23539308166503906	0		4.6542783203125	0.39545623779296873	0		5.5918056640625	0.20571359252929688	0		-0.46368228149414065	5.83468798828125	0		
-0.012735946655273438	0.006332462787628174	0		0.4883554382324219	-2.283058837890625	0		-1.10762548828125	0.022017114639282225	0		-0.8295842895507812	-2.206763916015625	0		1.8123726806640625	-0.37319277954101565	0		3.26797119140625	0.20937510681152344	0		4.6379580078125	0.38327230834960935	0		5.59241845703125	0.20488101196289063	0		-0.4758310546875	5.8245703125	0		
-0.002140856981277466	-0.004141233921051026	0		0.46311029052734376	-2.279964111328125	0		-1.106866943359375	0.021730255126953125	0		-0.8288795166015624	-2.2070576171875	0		1.8072357177734375	-0.36645391845703124	0		3.29184423828125	0.21560980224609375	0		4.64772412109375	0.3827013244628906	0		5.5858603515625	0.20957894897460938	0		-0.47591629028320315	5.8252841796875	0		
-0.006400373935699463	6.522639989852906E-4	0		0.4637178649902344	-2.28026123046875	0		-1.10620751953125	0.021468320846557618	0		-0.8194334716796875	-2.21747021484375	0		1.7707454833984375	-0.37518106079101565	0		3.29739404296875	0.20816867065429687	0		4.63939306640625	0.3824554748535156	0		5.58285546875	0.22284754943847657	0		-0.46098214721679687	5.8337802734375	0		
-0.005834756851196289	3.916589915752411E-4	0		0.4481406860351563	-2.286271484375	0		-1.1056414794921876	0.021230663299560547	0		-0.8168819580078125	-2.21574658203125	0		1.8202156982421875	-0.38127276611328126	0		3.288208740234375	0.22299934387207032	0		4.6571591796875	0.3938206787109375	0		5.60092431640625	0.19728085327148437	0		-0.44613449096679686	5.84330078125	0		
0.006675322055816651	0.0019615559577941893	0		0.46875213623046874	-2.27584130859375	0		-1.098049072265625	0.02790210151672363	0		-0.8853223266601562	-2.2078466796875	0		1.7789041748046874	-0.3678624267578125	0		3.293415283203125	0.20562245178222657	0		4.653548828125	0.3875622863769531	0		5.59416796875	0.20216267395019533	0		-0.45970416259765623	5.833302734375	0		
-0.004955255985260009	-5.337600037455559E-5	0		0.4650322570800781	-2.280993896484375	0		-1.10476123046875	0.02082571029663086	0		-0.8289839477539063	-2.209951416015625	0		1.8151959228515624	-0.374687744140625	0		3.31204443359375	0.21906080627441407	0		4.64985888671875	0.3813373107910156	0		5.59028955078125	0.21910110473632813	0		-0.4592027282714844	5.8331005859375	0		
-0.004626038074493408	-2.3930700123310088E-4	0		0.4653259582519531	-2.281187255859375	0		-1.104431640625	0.02065690803527832	0		-0.8548158569335937	-2.217700439453125	0		1.815519287109375	-0.37490200805664065	0		3.280300048828125	0.2143445129394531	0		4.65019384765625	0.3810788879394531	0		5.60110400390625	0.20091175842285156	0		-0.47292724609375	5.82415087890625	0		
5.581979751586914E-4	-0.005482768058776856	0		0.4655607604980469	-2.2813564453125	0		-1.1041650390625	0.020509389877319335	0		-0.8216659545898437	-2.22338818359375	0		1.8176009521484375	-0.3861209716796875	0		3.2805693359375	0.21413644409179688	0		4.6453359375	0.37293438720703126	0		5.58845654296875	0.20100596618652344	0		-0.458435791015625	5.83276513671875	0		
0.02084885025024414	-9.494109749794006E-4	0		0.477629638671875	-2.288696533203125	0		-1.0921337890625	0.009188488960266113	0		-0.8883088989257812	-2.212427978515625	0		1.78291064453125	-0.3797132873535156	0		3.31271435546875	0.20943609619140624	0		4.65376318359375	0.3856064758300781	0		5.60212158203125	0.19492503356933594	0		-0.44202569580078127	5.840369140625	0		
0.011096479415893555	0.004095407962799072	0		0.4828846435546875	-2.2819013671875	0		-1.0966746826171876	0.027161354064941405	0		-0.8152252197265625	-2.21672607421875	0		1.8281634521484376	-0.37458331298828124	0		3.29725830078125	0.23254292297363283	0		4.64906298828125	0.3935223388671875	0		5.59807568359375	0.2120924072265625	0		-0.44376870727539064	5.84228857421875	0		
-7.958340048789979E-4	0.0031966819763183593	0		0.46599017333984377	-2.281722412109375	0		-1.1036654052734376	0.020191123962402344	0		-0.8191860961914063	-2.220748046875	0		1.8162679443359375	-0.37549725341796875	0		3.28107470703125	0.21368435668945313	0		4.65097607421875	0.3803580017089844	0		5.595228515625	0.19985391235351563	0		-0.4587423095703125	5.833443359375	0		
-0.0037782840728759768	-8.258270025253296E-4	0		0.4920048828125	-2.2852216796875	0		-1.103582763671875	0.020126514434814453	0		-0.834067626953125	-2.2175703125	0		1.8181680908203126	-0.3866126098632813	0		3.28115869140625	0.21359034729003906	0		4.65106103515625	0.38025482177734377	0		5.58886865234375	0.19991981506347656	0		-0.4707987060546875	5.82257177734375	0		
-0.0037340331077575684	-8.760719895362855E-4	0		0.4739090881347656	-2.2929794921875	0		-1.107603271484375	0.01614779472351074	0		-0.8231669311523437	-2.225794677734375	0		1.8182103271484376	-0.38667227172851565	0		3.300087158203125	0.20621385192871095	0		4.651107421875	0.3801804809570313	0		5.59948046875	0.18206248474121095	0		-0.45756280517578124	5.832310546875	0		
0.0011919950246810913	-0.00598637580871582	0		0.466089599609375	-2.28188134765625	0		-1.103530029296875	0.020056732177734377	0		-0.8231668701171875	-2.225821044921875	0		1.7833199462890625	-0.38013763427734376	0		3.27045947265625	0.2286591796875	0		4.64932958984375	0.39316473388671874	0		5.59183935546875	0.21169316101074218	0		-0.44337130737304686	5.842052734375	0		
